<mxfile host="lich.tech" modified="2024-07-12T08:26:21.069Z" agent="Mozilla/5.0 (Windows NT 10.0; Win64; x64) AppleWebKit/537.36 (KHTML, like Gecko) Chrome/126.0.0.0 Safari/537.36" version="24.6.4" etag="NlSmlmVZyCs3VR9YUHJj" type="gitlab">
  <diagram name="Page-1" id="hw1DAFx1ku3KvIeotm99">
    <mxGraphModel>
      <root>
        <mxCell id="0" />
        <mxCell id="1" parent="0" />
      </root>
    </mxGraphModel>
  </diagram>
</mxfile>
